<svg width="20" height="20" viewBox="0 0 20 20" fill="none" xmlns="http://www.w3.org/2000/svg">
<path fill-rule="evenodd" clip-rule="evenodd" d="M13.6507 14.1006C12.6805 14.965 11.4016 15.4902 10 15.4902C6.96785 15.4902 4.5098 13.0322 4.5098 10C4.5098 6.96785 6.96785 4.5098 10 4.5098C13.0322 4.5098 15.4902 6.96785 15.4902 10C15.4902 11.3512 15.0021 12.5883 14.1926 13.5448L17.3782 16.75C19.0065 14.9712 20 12.6016 20 10C20 4.47715 15.5228 0 10 0C4.47715 0 0 4.47715 0 10C0 15.5228 4.47715 20 10 20C12.642 20 15.0447 18.9754 16.8324 17.3019L13.6507 14.1006Z" fill="#96FF43"/>
<path d="M11.7139 11.1719L14.7129 14.0503C15.6385 13.6536 15.7597 12.7831 15.7046 12.3974L11.7139 11.1719Z" fill="#96FF43"/>
<path d="M19.5117 19.9023L16.542 17.0252C15.6164 17.4219 14.8229 18.0445 14.878 18.4301L19.5117 19.9023Z" fill="#96FF43"/>
</svg>
